<?xml version="1.0" standalone="no"?>
<!DOCTYPE svg PUBLIC "-//W3C//DTD SVG 20010904//EN"
 "http://www.w3.org/TR/2001/REC-SVG-20010904/DTD/svg10.dtd">
<svg version="1.0" xmlns="http://www.w3.org/2000/svg"
 width="1268.000000pt" height="1280.000000pt" viewBox="0 0 1268.000000 1280.000000"
 preserveAspectRatio="xMidYMid meet">
<g transform="translate(0.000000,1280.000000) scale(0.100000,-0.100000)"
fill="#000000" stroke="none">
<path d="M9515 12737 l-110 -53 75 -41 c41 -22 489 -260 995 -528 506 -268
1178 -625 1494 -792 315 -167 575 -303 577 -301 1 2 30 81 62 176 43 122 56
174 48 180 -11 9 -2987 1396 -3017 1406 -7 3 -63 -18 -124 -47z"/>
<path d="M8454 8643 c-3276 -4654 -3864 -5489 -3927 -5579 l-57 -81 52 -87
c49 -82 53 -86 69 -69 56 60 6510 8756 6503 8763 -23 21 -366 260 -374 260 -4
0 -1024 -1443 -2266 -3207z"/>
<path d="M9693 9091 c-500 -666 -1616 -2153 -2482 -3306 -866 -1152 -1572
-2097 -1570 -2099 8 -7 606 13 684 23 44 5 177 17 295 26 300 22 550 44 569
49 9 3 147 26 306 51 160 25 310 53 335 60 25 8 96 24 158 35 62 11 140 31
175 44 34 13 85 28 114 34 159 35 594 238 763 358 209 148 381 308 463 429 22
33 57 79 76 102 36 41 59 84 144 263 72 150 87 186 87 203 0 9 13 45 29 79 39
82 58 135 126 353 31 99 70 215 86 258 16 43 29 86 29 96 0 10 23 80 51 157
28 76 61 182 73 235 13 52 31 118 39 145 9 27 24 87 32 134 9 47 22 105 30
130 19 59 65 314 65 362 0 21 20 162 45 314 25 151 45 295 45 318 0 24 5 68
10 97 6 30 15 106 21 169 5 63 17 189 25 280 8 91 19 239 25 330 12 193 24
376 39 585 28 398 45 895 31 895 -6 0 -419 -544 -918 -1209z"/>
<path d="M10968 9767 c-5 -10 -8 -44 -7 -75 1 -54 1 -55 10 -24 12 40 8 128
-3 99z"/>
<path d="M10952 9630 c-1 -3 -9 -57 -18 -120 -8 -63 -19 -146 -24 -185 -13
-93 -27 -200 -39 -310 -6 -49 -20 -134 -31 -189 -11 -54 -20 -115 -20 -135 0
-20 -11 -94 -25 -166 -14 -71 -48 -261 -75 -422 -28 -160 -56 -309 -64 -330
-7 -21 -17 -63 -21 -93 -4 -30 -15 -82 -25 -115 -10 -33 -26 -107 -35 -165
-19 -122 -92 -434 -140 -600 -19 -63 -36 -133 -40 -155 -3 -22 -23 -94 -45
-160 -21 -66 -42 -136 -45 -155 -4 -19 -20 -72 -36 -118 -16 -46 -29 -92 -29
-102 0 -42 -207 -582 -285 -745 -29 -60 -67 -139 -84 -175 -78 -162 -202 -378
-255 -443 -52 -65 -197 -287 -188 -287 5 0 40 26 78 58 38 32 97 77 131 100
34 23 85 64 112 90 28 26 94 85 148 132 211 184 239 215 298 331 30 59 55 113
55 120 0 6 17 53 39 103 21 50 51 132 66 181 15 50 40 124 56 165 16 41 29 83
29 92 0 10 9 44 19 75 11 32 25 87 31 123 7 35 16 72 21 82 5 10 18 64 28 120
11 57 24 115 30 131 6 15 22 94 36 175 13 81 31 167 39 192 19 56 96 534 96
592 0 24 16 139 35 256 19 118 35 232 35 255 0 23 7 80 15 127 17 93 31 224
45 425 5 72 14 173 20 225 5 52 14 154 19 227 5 73 12 136 14 140 8 13 39 564
35 613 -3 25 -5 43 -6 40z"/>
<path d="M9245 4304 c-22 -19 -58 -44 -80 -56 -22 -11 -71 -44 -110 -72 -38
-29 -115 -78 -170 -110 -55 -33 -122 -73 -150 -89 -75 -46 -194 -110 -475
-254 -107 -56 -233 -114 -280 -131 -47 -16 -141 -52 -210 -79 -282 -112 -714
-235 -885 -253 -38 -4 -128 -17 -200 -28 -226 -37 -361 -47 -625 -46 -213 0
-278 4 -394 22 -76 13 -140 21 -142 19 -9 -9 243 -105 309 -117 28 -6 75 -17
102 -25 132 -37 180 -47 310 -66 234 -34 283 -38 465 -38 166 0 293 8 440 27
105 14 490 110 552 138 32 14 79 31 106 39 54 16 259 114 367 175 39 22 95 53
126 69 30 16 80 49 110 73 29 25 88 67 129 94 41 27 114 85 161 129 47 44 129
118 181 164 53 46 113 106 133 132 20 26 54 64 76 83 62 57 168 176 185 207 8
16 13 29 12 29 -2 -1 -21 -17 -43 -36z"/>
<path d="M2500 3275 c-74 -13 -148 -28 -163 -34 -16 -6 -89 -11 -168 -11 -193
0 -618 -18 -709 -31 -41 -5 -132 -14 -202 -19 -345 -23 -674 -159 -785 -324
-15 -23 -42 -58 -59 -79 -17 -21 -38 -59 -45 -85 -7 -26 -22 -62 -33 -81 -17
-30 -20 -53 -20 -184 l-1 -149 75 -29 c41 -15 83 -28 93 -28 17 -1 17 1 1 32
-12 22 -19 65 -22 139 -6 152 15 217 103 320 36 42 87 92 113 112 62 45 244
128 256 116 10 -10 -13 -73 -51 -140 -14 -25 -42 -74 -63 -110 -20 -36 -65
-114 -99 -173 -35 -60 -59 -113 -55 -117 5 -4 563 -398 1239 -875 677 -477
1240 -877 1252 -888 19 -17 23 -32 25 -101 l3 -81 75 -27 c41 -15 83 -27 93
-27 16 -1 16 1 2 29 -17 33 -19 56 -6 64 9 6 188 -115 207 -140 7 -9 9 -34 6
-61 -5 -45 -4 -46 19 -39 13 4 62 11 108 17 46 5 136 18 200 28 64 11 292 47
506 81 1134 176 1907 299 1911 302 3 4 -68 616 -81 693 -4 25 -19 38 -83 76
-1106 658 -1917 1155 -2299 1411 -249 165 -433 294 -433 303 0 8 -8 15 -17 15
-10 0 -30 7 -46 15 -46 24 -226 65 -332 75 -55 5 -127 14 -160 20 -91 15 -205
10 -355 -15z"/>
<path d="M615 2033 c6 -6 498 -336 1095 -733 l1084 -723 145 12 c80 7 147 14
148 15 3 2 -2304 1341 -2422 1406 -33 18 -55 29 -50 23z"/>
<path d="M255 1702 c16 -17 2496 -1682 2505 -1682 10 0 125 210 125 228 0 7
-551 317 -1225 688 -1343 740 -1420 782 -1405 766z"/>
</g>
</svg>
